<svg xmlns="http://www.w3.org/2000/svg" width="128" height="113" viewBox="0 0 128 113" fill="none">
  <path fill-rule="evenodd" clip-rule="evenodd" d="M1.56415 70.4001C11.1005 92.8457 33.094 108.952 59.2271 109.864C95.1009 111.117 125.19 83.2646 126.434 47.654C126.922 33.6848 122.898 20.597 115.663 9.77289L109.941 12.8133C116.669 22.6572 120.426 34.6323 119.979 47.4285C118.859 79.5003 91.7596 104.585 59.4508 103.457C35.7002 102.627 15.746 87.8635 7.28619 67.3597L1.56415 70.4001Z" fill="#68D585"/>
  <path fill-rule="evenodd" clip-rule="evenodd" d="M20.1473 72.6284C28.6684 85.5078 43.162 94.2305 59.8777 94.8143C87.21 95.7687 110.133 74.601 111.079 47.5349C111.724 29.043 101.944 12.582 86.9663 3.7041L82.3713 8.44383C96.128 15.9684 105.221 30.6971 104.641 47.3101C103.819 70.8554 83.8772 89.2696 60.1003 88.4393C45.0244 87.9128 32.0263 79.7759 24.7417 67.8892L20.1473 72.6284Z" fill="#161C2D"/>
</svg>